<svg width="579.44873046875px" height="122.02138671875px" xmlns="http://www.w3.org/2000/svg" viewBox="-39.724365234375 13.989306640625003 579.44873046875 122.02138671875" style="background: rgba(0, 0, 0, 0);" preserveAspectRatio="xMidYMid"><defs><linearGradient id="editing-gradient-gradient" x1="0" x2="1" y1="0.5" y2="0.5" gradientUnits="objectBoundingBox"><stop offset="0" stop-color="#f0f"></stop><stop offset="1" stop-color="#0ff"></stop></linearGradient></defs><g><g transform="translate(47.27593803405762, 98.9921875)"><path d="M29.18 1.28L29.18 1.28L29.18 1.28Q20.99 1.28 20.22-10.37L20.22-10.37L9.22-10.37L9.22-10.37Q7.94-7.42 7.04-4.86L7.04-4.86L5.38 0L-3.58 0L16.58-42.24L30.34-42.24L33.02-11.14L33.02-11.14Q33.66-4.42 36.22-2.43L36.22-2.43L36.22-2.43Q34.37 1.28 29.18 1.28ZM14.72-23.17L11.20-15.04L20.03-15.04L19.26-31.49L19.26-33.22L14.72-23.17ZM38.02-3.78L38.02-3.78L38.02-3.78Q38.02-6.21 39.90-7.55L39.90-7.55L39.90-7.55Q41.79-8.90 44.48-8.90L44.48-8.90L44.48-8.90Q47.17-8.90 48.80-7.55L48.80-7.55L48.80-7.55Q50.43-6.21 50.43-3.78L50.43-3.78L50.43-3.78Q50.43-1.34 48.61-0.03L48.61-0.03L48.61-0.03Q46.78 1.28 44.10 1.28L44.10 1.28L44.10 1.28Q41.41 1.28 39.71-0.03L39.71-0.03L39.71-0.03Q38.02-1.34 38.02-3.78ZM69.44 0L55.81 0L63.10-38.91L63.81-42.24L77.50-42.24L69.44 0ZM95.42-3.78L95.42-3.78L95.42-3.78Q93.70 1.28 87.04 1.28L87.04 1.28L87.04 1.28Q82.11 1.28 78.72-4.61L78.72-4.61L78.72-4.61Q75.26-10.50 74.62-20.10L74.62-20.10L74.62-20.10Q81.66-32.96 86.53-38.27L86.53-38.27L86.53-38.27Q91.20-43.33 96.06-43.33L96.06-43.33L96.06-43.33Q98.69-43.33 100.58-41.92L100.58-41.92L100.58-41.92Q102.46-40.51 102.91-38.27L102.91-38.27L102.91-38.27Q100.74-37.38 99.71-36.67L99.71-36.67L99.71-36.67Q97.15-34.75 93.70-30.46L93.70-30.46L87.87-23.49L87.87-23.49Q86.46-21.82 85.89-21.06L85.89-21.06L85.89-21.06Q86.85-15.68 89.73-10.37L89.73-10.37L89.73-10.37Q92.48-5.31 95.42-3.78ZM119.17-31.17L119.17-31.17L119.17-31.17Q116.99-32.83 116.99-36.38L116.99-36.38L116.99-36.38Q116.99-39.94 119.33-41.79L119.33-41.79L119.33-41.79Q121.66-43.65 125.70-43.65L125.70-43.65L125.70-43.65Q128.26-43.65 134.34-42.75L134.34-42.75L138.69-42.11L138.69-42.11Q140.86-41.86 143.14-41.86L143.14-41.86L143.14-41.86Q145.41-41.86 146.94-42.82L146.94-42.82L146.94-42.82Q149.25-40.77 149.25-37.82L149.25-37.82L149.25-37.82Q149.25-34.88 146.62-32.77L146.62-32.77L146.62-32.77Q143.94-30.53 140.48-30.53L140.48-30.53L140.48-30.53Q138.82-30.53 136.13-30.98L136.13-30.98L136.13-30.98Q132.99-21.12 132.99-14.27L132.99-14.27L132.99-14.27Q132.99-7.42 136.45-3.84L136.45-3.84L136.45-3.84Q134.85-0.96 132.48 0.16L132.48 0.16L132.48 0.16Q130.11 1.28 126.56 1.28L126.56 1.28L126.56 1.28Q123.01 1.28 120.80-0.67L120.80-0.67L120.80-0.67Q118.59-2.62 118.59-6.66L118.59-6.66L118.59-6.66Q118.59-11.33 121.15-19.01L121.15-19.01L121.15-19.01Q123.71-26.62 127.55-32.45L127.55-32.45L127.55-32.45Q125.70-32.64 123.78-32.64L123.78-32.64L123.78-32.64Q119.81-32.64 119.17-31.17ZM170.18-10.82L170.18-10.82L170.18-10.82Q171.78-9.73 171.78-7.33L171.78-7.33L171.78-7.33Q171.78-4.93 170.56-3.39L170.56-3.39L170.56-3.39Q169.34-1.86 167.36-0.83L167.36-0.83L167.36-0.83Q163.26 1.28 158.85 1.28L158.85 1.28L158.85 1.28Q154.43 1.28 151.84 0.32L151.84 0.32L151.84 0.32Q149.25-0.64 147.52-2.43L147.52-2.43L147.52-2.43Q144.13-5.82 144.13-12.03L144.13-12.03L144.13-12.03Q144.13-21.70 149.38-27.58L149.38-27.58L149.38-27.58Q155.01-33.92 164.80-33.92L164.80-33.92L164.80-33.92Q170.88-33.92 173.89-31.36L173.89-31.36L173.89-31.36Q176.13-29.44 176.13-26.30L176.13-26.30L176.13-26.30Q176.13-15.04 156.67-15.04L156.67-15.04L156.67-15.04Q156.42-13.38 156.42-11.97L156.42-11.97L156.42-11.97Q156.42-9.02 157.73-7.90L157.73-7.90L157.73-7.90Q159.04-6.78 161.47-6.78L161.47-6.78L161.47-6.78Q163.90-6.78 166.50-7.90L166.50-7.90L166.50-7.90Q169.09-9.02 170.18-10.82ZM157.12-17.79L157.12-17.79L157.12-17.79Q161.66-17.79 164.29-20.61L164.29-20.61L164.29-20.61Q166.91-23.30 166.91-27.58L166.91-27.58L166.91-27.58Q166.91-29.06 166.37-29.86L166.37-29.86L166.37-29.86Q165.82-30.66 164.74-30.66L164.74-30.66L164.74-30.66Q163.65-30.66 162.72-30.24L162.72-30.24L162.72-30.24Q161.79-29.82 160.83-28.42L160.83-28.42L160.83-28.42Q158.46-25.22 157.12-17.79ZM209.73-26.62L209.73-26.62L209.73-26.62Q209.73-23.94 207.49-22.27L207.49-22.27L207.49-22.27Q205.25-20.61 201.60-20.61L201.60-20.61L201.60-20.61Q200.06-20.61 199.17-21.06L199.17-21.06L199.17-21.06Q199.87-22.72 200.10-24.80L200.10-24.80L200.10-24.80Q200.32-26.88 200.32-27.46L200.32-27.46L200.32-27.46Q200.32-30.14 198.46-30.14L198.46-30.14L198.46-30.14Q197.18-30.14 195.74-28.54L195.74-28.54L195.74-28.54Q194.30-26.94 193.09-24.45L193.09-24.45L193.09-24.45Q190.40-18.69 190.40-12.86L190.40-12.86L190.40-12.86Q190.40-9.66 191.62-8.22L191.62-8.22L191.62-8.22Q192.83-6.78 195.52-6.78L195.52-6.78L195.52-6.78Q199.23-6.78 202.18-9.86L202.18-9.86L202.18-9.86Q203.01-10.82 203.46-11.90L203.46-11.90L203.46-11.90Q205.89-10.62 205.89-7.10L205.89-7.10L205.89-7.10Q205.89-3.52 201.92-1.15L201.92-1.15L201.92-1.15Q197.82 1.28 191.30 1.28L191.30 1.28L191.30 1.28Q178.30 1.28 178.30-12.48L178.30-12.48L178.30-12.48Q178.30-22.53 184.00-28.29L184.00-28.29L184.00-28.29Q189.50-33.92 199.62-33.92L199.62-33.92L199.62-33.92Q209.73-33.92 209.73-26.62ZM243.65-7.10L243.65-7.10L243.65-7.10Q243.65-4.29 246.53-3.46L246.53-3.46L246.53-3.46Q245.82-1.09 243.07 0.19L243.07 0.19L243.07 0.19Q240.77 1.28 238.24 1.28L238.24 1.28L238.24 1.28Q235.71 1.28 234.40 0.61L234.40 0.61L234.40 0.61Q233.09-0.06 232.38-1.15L232.38-1.15L232.38-1.15Q231.23-2.82 231.23-5.95L231.23-5.95L231.23-5.95Q231.23-7.81 232.26-12.93L232.26-12.93L233.15-17.79L233.15-17.79Q234.24-23.36 234.24-25.41L234.24-25.41L234.24-25.41Q234.24-28.99 232.26-28.99L232.26-28.99L232.26-28.99Q229.76-28.99 228.16-25.34L228.16-25.34L228.16-25.34Q227.52-23.94 227.07-21.82L227.07-21.82L222.72 0L209.86 1.28L218.88-44.80L231.74-46.08L231.23-43.52L231.23-43.52Q229.44-33.66 227.90-30.34L227.90-30.34L227.90-30.34Q231.49-33.92 238.08-33.92L238.08-33.92L238.08-33.92Q245.06-33.92 246.34-29.31L246.34-29.31L246.34-29.31Q246.78-27.84 246.78-26.56L246.78-26.56L246.78-26.56Q246.78-25.28 246.69-24.29L246.69-24.29L246.69-24.29Q246.59-23.30 246.27-21.50L246.27-21.50L245.44-16.90L243.97-9.66L243.97-9.66Q243.65-8.19 243.65-7.10ZM278.78 1.28L278.78 1.28L278.78 1.28Q271.04 1.28 271.04-4.74L271.04-4.74L271.04-4.74Q271.10-6.40 271.62-9.22L271.62-9.22L272.77-15.10L272.77-15.10Q274.50-23.42 274.50-25.28L274.50-25.28L274.50-25.28Q274.50-28.99 272.32-28.99L272.32-28.99L272.32-28.99Q268.67-28.99 266.75-19.46L266.75-19.46L262.98 0L250.11 1.28L256.77-32.70L267.26-33.92L266.24-27.65L266.24-27.65Q269.25-33.92 278.46-33.92L278.46-33.92L278.46-33.92Q282.94-33.92 284.83-32.03L284.83-32.03L284.83-32.03Q286.72-30.14 286.72-25.92L286.72-25.92L286.72-25.92Q286.72-21.95 284.67-12.67L284.67-12.67L284.67-12.67Q283.71-8.51 283.71-6.94L283.71-6.94L283.71-6.94Q283.71-5.38 284.58-4.48L284.58-4.48L284.58-4.48Q285.44-3.58 286.72-3.46L286.72-3.46L286.72-3.46Q286.08-1.28 283.87 0L283.87 0L283.87 0Q281.66 1.28 278.78 1.28ZM307.20-3.52L307.20-3.52L307.20-3.52Q305.22 1.28 298.88 1.28L298.88 1.28L298.88 1.28Q295.62 1.28 293.57-0.96L293.57-0.96L293.57-0.96Q291.84-2.94 291.84-4.93L291.84-4.93L291.84-4.93Q291.84-10.11 294.21-20.22L294.21-20.22L296.58-32.64L309.57-33.92L305.66-13.70L305.66-13.70Q304.58-8.96 304.58-7.30L304.58-7.30L304.58-7.30Q304.58-3.65 307.20-3.52ZM297.73-41.54L297.73-41.54L297.73-41.54Q297.73-44.03 299.81-45.38L299.81-45.38L299.81-45.38Q301.89-46.72 304.90-46.72L304.90-46.72L304.90-46.72Q307.90-46.72 309.73-45.38L309.73-45.38L309.73-45.38Q311.55-44.03 311.55-41.54L311.55-41.54L311.55-41.54Q311.55-39.04 309.54-37.76L309.54-37.76L309.54-37.76Q307.52-36.48 304.51-36.48L304.51-36.48L304.51-36.48Q301.50-36.48 299.62-37.76L299.62-37.76L299.62-37.76Q297.73-39.04 297.73-41.54ZM344.06-26.62L344.06-26.62L344.06-26.62Q344.06-23.94 341.82-22.27L341.82-22.27L341.82-22.27Q339.58-20.61 335.94-20.61L335.94-20.61L335.94-20.61Q334.40-20.61 333.50-21.06L333.50-21.06L333.50-21.06Q334.21-22.72 334.43-24.80L334.43-24.80L334.43-24.80Q334.66-26.88 334.66-27.46L334.66-27.46L334.66-27.46Q334.66-30.14 332.80-30.14L332.80-30.14L332.80-30.14Q331.52-30.14 330.08-28.54L330.08-28.54L330.08-28.54Q328.64-26.94 327.42-24.45L327.42-24.45L327.42-24.45Q324.74-18.69 324.74-12.86L324.74-12.86L324.74-12.86Q324.74-9.66 325.95-8.22L325.95-8.22L325.95-8.22Q327.17-6.78 329.86-6.78L329.86-6.78L329.86-6.78Q333.57-6.78 336.51-9.86L336.51-9.86L336.51-9.86Q337.34-10.82 337.79-11.90L337.79-11.90L337.79-11.90Q340.22-10.62 340.22-7.10L340.22-7.10L340.22-7.10Q340.22-3.52 336.26-1.15L336.26-1.15L336.26-1.15Q332.16 1.28 325.63 1.28L325.63 1.28L325.63 1.28Q312.64 1.28 312.64-12.48L312.64-12.48L312.64-12.48Q312.64-22.53 318.34-28.29L318.34-28.29L318.34-28.29Q323.84-33.92 333.95-33.92L333.95-33.92L333.95-33.92Q344.06-33.92 344.06-26.62ZM348.58-1.92L348.58-1.92L348.58-1.92Q347.07-3.58 346.40-6.21L346.40-6.21L346.40-6.21Q345.73-8.83 345.73-13.12L345.73-13.12L345.73-13.12Q345.73-17.41 347.20-21.31L347.20-21.31L347.20-21.31Q348.67-25.22 351.36-28.03L351.36-28.03L351.36-28.03Q356.86-33.92 365.95-33.92L365.95-33.92L365.95-33.92Q369.22-33.92 371.58-32.83L371.58-32.83L382.53-33.92L377.79-8.96L377.79-8.96Q377.60-8.19 377.60-6.78L377.60-6.78L377.60-6.78Q377.60-5.38 378.46-4.48L378.46-4.48L378.46-4.48Q379.33-3.58 380.61-3.46L380.61-3.46L380.61-3.46Q379.97-1.28 377.63 0L377.63 0L377.63 0Q375.30 1.28 372.67 1.28L372.67 1.28L372.67 1.28Q370.05 1.28 368.29 0.29L368.29 0.29L368.29 0.29Q366.53-0.70 366.02-2.37L366.02-2.37L366.02-2.37Q364.99-0.77 362.82 0.26L362.82 0.26L362.82 0.26Q360.64 1.28 357.73 1.28L357.73 1.28L357.73 1.28Q354.82 1.28 352.45 0.51L352.45 0.51L352.45 0.51Q350.08-0.26 348.58-1.92ZM362.08-27.90L362.08-27.90L362.08-27.90Q361.34-26.75 360.70-24.80L360.70-24.80L360.70-24.80Q360.06-22.85 359.01-17.63L359.01-17.63L359.01-17.63Q357.95-12.42 357.95-8.70L357.95-8.70L357.95-8.70Q357.95-4.99 358.53-3.90L358.53-3.90L358.53-3.90Q359.10-2.82 360.13-2.82L360.13-2.82L360.13-2.82Q362.18-2.82 363.68-4.77L363.68-4.77L363.68-4.77Q365.18-6.72 365.76-10.18L365.76-10.18L369.15-28.93L369.15-28.93Q367.81-30.08 366.24-30.08L366.24-30.08L366.24-30.08Q364.67-30.08 363.74-29.57L363.74-29.57L363.74-29.57Q362.82-29.06 362.08-27.90ZM401.28-3.52L401.28-3.52L401.28-3.52Q399.30 1.28 392.96 1.28L392.96 1.28L392.96 1.28Q389.76 1.28 387.71-0.96L387.71-0.96L387.71-0.96Q386.05-2.82 386.05-4.93L386.05-4.93L386.05-4.93Q386.05-9.73 388.29-20.22L388.29-20.22L392.96-44.80L405.95-46.08L399.74-13.70L399.74-13.70Q398.66-8.96 398.66-7.30L398.66-7.30L398.66-7.30Q398.66-3.65 401.28-3.52Z" fill="url(#editing-gradient-gradient)"></path></g></g><style>text {
  font-size: 64px;
  font-family: Arial Black;
  dominant-baseline: central;
  text-anchor: middle;
}</style></svg>