<svg width="214.16123046875px" height="42.822265625px" xmlns="http://www.w3.org/2000/svg" viewBox="142.919384765625 53.5888671875 214.16123046875 42.822265625" style="background: rgba(0, 0, 0, 0);" preserveAspectRatio="xMidYMid"><defs><linearGradient id="editing-gradow-gradient" x1="0" x2="1" y1="0.5" y2="0.5" gradientUnits="objectBoundingBox"><stop offset="0" stop-color="#f0f"></stop><stop offset="1" stop-color="#0ff"></stop></linearGradient><filter id="editing-gradow-filter" x="-100%" y="-100%" width="300%" height="300%"><feFlood flood-color="#fffcd9" result="flood"></feFlood><feComposite operator="in" in2="SourceAlpha" in="flood" result="shadow"></feComposite><feOffset dx="-4" dy="-4" in="SourceGraphic" result="offset-1"></feOffset><feOffset dx="4" dy="4" in="shadow" result="offset-2"></feOffset><feMerge><feMergeNode in="offset-2"></feMergeNode><feMergeNode in="offset-1"></feMergeNode></feMerge></filter></defs><g filter="url(#editing-gradow-filter)"><g transform="translate(179.6309393644333, 81.98000001907349)"><path d="M6.84 0.30L6.84 0.30L6.84 0.30Q4.92 0.30 4.74-2.43L4.74-2.43L2.16-2.43L2.16-2.43Q1.86-1.74 1.65-1.14L1.65-1.14L1.26 0L-0.84 0L3.88-9.90L7.11-9.90L7.74-2.61L7.74-2.61Q7.89-1.03 8.49-0.57L8.49-0.57L8.49-0.57Q8.05 0.30 6.84 0.30ZM3.45-5.43L2.63-3.52L4.69-3.52L4.51-7.38L4.51-7.79L3.45-5.43ZM8.91-0.89L8.91-0.89L8.91-0.89Q8.91-1.45 9.35-1.77L9.35-1.77L9.35-1.77Q9.79-2.08 10.43-2.08L10.43-2.08L10.43-2.08Q11.05-2.08 11.44-1.77L11.44-1.77L11.44-1.77Q11.82-1.45 11.82-0.89L11.82-0.89L11.82-0.89Q11.82-0.32 11.39-0.01L11.39-0.01L11.39-0.01Q10.96 0.30 10.34 0.30L10.34 0.30L10.34 0.30Q9.71 0.30 9.31-0.01L9.31-0.01L9.31-0.01Q8.91-0.32 8.91-0.89ZM16.28 0L13.08 0L14.79-9.12L14.96-9.90L18.16-9.90L16.28 0ZM22.37-0.89L22.37-0.89L22.37-0.89Q21.96 0.30 20.40 0.30L20.40 0.30L20.40 0.30Q19.25 0.30 18.45-1.08L18.45-1.08L18.45-1.08Q17.64-2.46 17.49-4.71L17.49-4.71L17.49-4.71Q19.14-7.72 20.28-8.97L20.28-8.97L20.28-8.97Q21.38-10.15 22.52-10.15L22.52-10.15L22.52-10.15Q23.13-10.15 23.57-9.82L23.57-9.82L23.57-9.82Q24.02-9.49 24.12-8.97L24.12-8.97L24.12-8.97Q23.61-8.76 23.37-8.59L23.37-8.59L23.37-8.59Q22.77-8.14 21.96-7.14L21.96-7.14L20.59-5.50L20.59-5.50Q20.27-5.12 20.13-4.93L20.13-4.93L20.13-4.93Q20.36-3.67 21.03-2.43L21.03-2.43L21.03-2.43Q21.68-1.24 22.37-0.89ZM27.93-7.30L27.93-7.30L27.93-7.30Q27.42-7.69 27.42-8.53L27.42-8.53L27.42-8.53Q27.42-9.36 27.97-9.79L27.97-9.79L27.97-9.79Q28.51-10.23 29.46-10.23L29.46-10.23L29.46-10.23Q30.06-10.23 31.48-10.02L31.48-10.02L32.50-9.87L32.50-9.87Q33.02-9.81 33.55-9.81L33.55-9.81L33.55-9.81Q34.08-9.81 34.44-10.04L34.44-10.04L34.44-10.04Q34.98-9.55 34.98-8.87L34.98-8.87L34.98-8.87Q34.98-8.17 34.36-7.68L34.36-7.68L34.36-7.68Q33.73-7.15 32.92-7.15L32.92-7.15L32.92-7.15Q32.53-7.15 31.90-7.26L31.90-7.26L31.90-7.26Q31.17-4.95 31.17-3.34L31.17-3.34L31.17-3.34Q31.17-1.74 31.98-0.90L31.98-0.90L31.98-0.90Q31.60-0.22 31.05 0.04L31.05 0.04L31.05 0.04Q30.49 0.30 29.66 0.30L29.66 0.30L29.66 0.30Q28.83 0.30 28.31-0.16L28.31-0.16L28.31-0.16Q27.79-0.61 27.79-1.56L27.79-1.56L27.79-1.56Q27.79-2.65 28.39-4.46L28.39-4.46L28.39-4.46Q28.99-6.24 29.89-7.60L29.89-7.60L29.89-7.60Q29.46-7.65 29.01-7.65L29.01-7.65L29.01-7.65Q28.08-7.65 27.93-7.30ZM39.88-2.53L39.88-2.53L39.88-2.53Q40.26-2.28 40.26-1.72L40.26-1.72L40.26-1.72Q40.26-1.16 39.98-0.79L39.98-0.79L39.98-0.79Q39.69-0.43 39.23-0.20L39.23-0.20L39.23-0.20Q38.27 0.30 37.23 0.30L37.23 0.30L37.23 0.30Q36.20 0.30 35.59 0.07L35.59 0.07L35.59 0.07Q34.98-0.15 34.58-0.57L34.58-0.57L34.58-0.57Q33.78-1.36 33.78-2.82L33.78-2.82L33.78-2.82Q33.78-5.08 35.01-6.46L35.01-6.46L35.01-6.46Q36.33-7.95 38.63-7.95L38.63-7.95L38.63-7.95Q40.05-7.95 40.75-7.35L40.75-7.35L40.75-7.35Q41.28-6.90 41.28-6.17L41.28-6.17L41.28-6.17Q41.28-3.52 36.72-3.52L36.72-3.52L36.72-3.52Q36.66-3.13 36.66-2.80L36.66-2.80L36.66-2.80Q36.66-2.11 36.97-1.85L36.97-1.85L36.97-1.85Q37.27-1.59 37.84-1.59L37.84-1.59L37.84-1.59Q38.41-1.59 39.02-1.85L39.02-1.85L39.02-1.85Q39.63-2.11 39.88-2.53ZM36.83-4.17L36.83-4.17L36.83-4.17Q37.89-4.17 38.51-4.83L38.51-4.83L38.51-4.83Q39.12-5.46 39.12-6.46L39.12-6.46L39.12-6.46Q39.12-6.81 38.99-7.00L38.99-7.00L38.99-7.00Q38.87-7.18 38.61-7.18L38.61-7.18L38.61-7.18Q38.35-7.18 38.14-7.09L38.14-7.09L38.14-7.09Q37.92-6.99 37.70-6.66L37.70-6.66L37.70-6.66Q37.14-5.91 36.83-4.17ZM49.15-6.24L49.15-6.24L49.15-6.24Q49.15-5.61 48.63-5.22L48.63-5.22L48.63-5.22Q48.10-4.83 47.25-4.83L47.25-4.83L47.25-4.83Q46.89-4.83 46.68-4.93L46.68-4.93L46.68-4.93Q46.84-5.33 46.90-5.81L46.90-5.81L46.90-5.81Q46.95-6.30 46.95-6.43L46.95-6.43L46.95-6.43Q46.95-7.06 46.51-7.06L46.51-7.06L46.51-7.06Q46.21-7.06 45.88-6.69L45.88-6.69L45.88-6.69Q45.54-6.31 45.25-5.73L45.25-5.73L45.25-5.73Q44.63-4.38 44.63-3.01L44.63-3.01L44.63-3.01Q44.63-2.27 44.91-1.93L44.91-1.93L44.91-1.93Q45.19-1.59 45.82-1.59L45.82-1.59L45.82-1.59Q46.69-1.59 47.38-2.31L47.38-2.31L47.38-2.31Q47.58-2.53 47.68-2.79L47.68-2.79L47.68-2.79Q48.25-2.49 48.25-1.67L48.25-1.67L48.25-1.67Q48.25-0.82 47.32-0.27L47.32-0.27L47.32-0.27Q46.36 0.30 44.83 0.30L44.83 0.30L44.83 0.30Q41.79 0.30 41.79-2.92L41.79-2.92L41.79-2.92Q41.79-5.28 43.13-6.63L43.13-6.63L43.13-6.63Q44.41-7.95 46.78-7.95L46.78-7.95L46.78-7.95Q49.15-7.95 49.15-6.24ZM57.10-1.67L57.10-1.67L57.10-1.67Q57.10-1.00 57.78-0.81L57.78-0.81L57.78-0.81Q57.61-0.26 56.97 0.04L56.97 0.04L56.97 0.04Q56.43 0.30 55.84 0.30L55.84 0.30L55.84 0.30Q55.24 0.30 54.94 0.14L54.94 0.14L54.94 0.14Q54.63-0.01 54.46-0.27L54.46-0.27L54.46-0.27Q54.19-0.66 54.19-1.40L54.19-1.40L54.19-1.40Q54.19-1.83 54.43-3.03L54.43-3.03L54.64-4.17L54.64-4.17Q54.90-5.47 54.90-5.96L54.90-5.96L54.90-5.96Q54.90-6.79 54.43-6.79L54.43-6.79L54.43-6.79Q53.85-6.79 53.47-5.94L53.47-5.94L53.47-5.94Q53.32-5.61 53.22-5.12L53.22-5.12L52.20 0L49.18 0.30L51.30-10.50L54.31-10.80L54.19-10.20L54.19-10.20Q53.77-7.89 53.41-7.11L53.41-7.11L53.41-7.11Q54.25-7.95 55.80-7.95L55.80-7.95L55.80-7.95Q57.43-7.95 57.73-6.87L57.73-6.87L57.73-6.87Q57.84-6.52 57.84-6.22L57.84-6.22L57.84-6.22Q57.84-5.92 57.82-5.69L57.82-5.69L57.82-5.69Q57.79-5.46 57.72-5.04L57.72-5.04L57.52-3.96L57.18-2.27L57.18-2.27Q57.10-1.92 57.10-1.67ZM65.34 0.30L65.34 0.30L65.34 0.30Q63.52 0.30 63.52-1.11L63.52-1.11L63.52-1.11Q63.54-1.50 63.66-2.16L63.66-2.16L63.93-3.54L63.93-3.54Q64.33-5.49 64.33-5.92L64.33-5.92L64.33-5.92Q64.33-6.79 63.82-6.79L63.82-6.79L63.82-6.79Q62.97-6.79 62.52-4.56L62.52-4.56L61.63 0L58.62 0.30L60.18-7.67L62.64-7.95L62.40-6.48L62.40-6.48Q63.10-7.95 65.27-7.95L65.27-7.95L65.27-7.95Q66.31-7.95 66.76-7.51L66.76-7.51L66.76-7.51Q67.20-7.06 67.20-6.08L67.20-6.08L67.20-6.08Q67.20-5.14 66.72-2.97L66.72-2.97L66.72-2.97Q66.49-1.99 66.49-1.63L66.49-1.63L66.49-1.63Q66.49-1.26 66.70-1.05L66.70-1.05L66.70-1.05Q66.90-0.84 67.20-0.81L67.20-0.81L67.20-0.81Q67.05-0.30 66.53 0L66.53 0L66.53 0Q66.02 0.30 65.34 0.30ZM72-0.82L72-0.82L72-0.82Q71.53 0.30 70.05 0.30L70.05 0.30L70.05 0.30Q69.28 0.30 68.80-0.22L68.80-0.22L68.80-0.22Q68.40-0.69 68.40-1.16L68.40-1.16L68.40-1.16Q68.40-2.37 68.95-4.74L68.95-4.74L69.51-7.65L72.55-7.95L71.64-3.21L71.64-3.21Q71.38-2.10 71.38-1.71L71.38-1.71L71.38-1.71Q71.38-0.85 72-0.82ZM69.78-9.73L69.78-9.73L69.78-9.73Q69.78-10.32 70.27-10.63L70.27-10.63L70.27-10.63Q70.75-10.95 71.46-10.95L71.46-10.95L71.46-10.95Q72.16-10.95 72.59-10.63L72.59-10.63L72.59-10.63Q73.02-10.32 73.02-9.73L73.02-9.73L73.02-9.73Q73.02-9.15 72.55-8.85L72.55-8.85L72.55-8.85Q72.07-8.55 71.37-8.55L71.37-8.55L71.37-8.55Q70.66-8.55 70.22-8.85L70.22-8.85L70.22-8.85Q69.78-9.15 69.78-9.73ZM80.64-6.24L80.64-6.24L80.64-6.24Q80.64-5.61 80.11-5.22L80.11-5.22L80.11-5.22Q79.59-4.83 78.73-4.83L78.73-4.83L78.73-4.83Q78.38-4.83 78.16-4.93L78.16-4.93L78.16-4.93Q78.33-5.33 78.38-5.81L78.38-5.81L78.38-5.81Q78.44-6.30 78.44-6.43L78.44-6.43L78.44-6.43Q78.44-7.06 78-7.06L78-7.06L78-7.06Q77.70-7.06 77.36-6.69L77.36-6.69L77.36-6.69Q77.02-6.31 76.74-5.73L76.74-5.73L76.74-5.73Q76.11-4.38 76.11-3.01L76.11-3.01L76.11-3.01Q76.11-2.27 76.39-1.93L76.39-1.93L76.39-1.93Q76.68-1.59 77.31-1.59L77.31-1.59L77.31-1.59Q78.18-1.59 78.87-2.31L78.87-2.31L78.87-2.31Q79.06-2.53 79.17-2.79L79.17-2.79L79.17-2.79Q79.74-2.49 79.74-1.67L79.74-1.67L79.74-1.67Q79.74-0.82 78.81-0.27L78.81-0.27L78.81-0.27Q77.85 0.30 76.32 0.30L76.32 0.30L76.32 0.30Q73.27 0.30 73.27-2.92L73.27-2.92L73.27-2.92Q73.27-5.28 74.61-6.63L74.61-6.63L74.61-6.63Q75.90-7.95 78.27-7.95L78.27-7.95L78.27-7.95Q80.64-7.95 80.64-6.24ZM81.70-0.45L81.70-0.45L81.70-0.45Q81.34-0.84 81.19-1.45L81.19-1.45L81.19-1.45Q81.03-2.07 81.03-3.07L81.03-3.07L81.03-3.07Q81.03-4.08 81.37-5.00L81.37-5.00L81.37-5.00Q81.72-5.91 82.35-6.57L82.35-6.57L82.35-6.57Q83.64-7.95 85.77-7.95L85.77-7.95L85.77-7.95Q86.53-7.95 87.09-7.69L87.09-7.69L89.65-7.95L88.54-2.10L88.54-2.10Q88.50-1.92 88.50-1.59L88.50-1.59L88.50-1.59Q88.50-1.26 88.70-1.05L88.70-1.05L88.70-1.05Q88.90-0.84 89.20-0.81L89.20-0.81L89.20-0.81Q89.05-0.30 88.51 0L88.51 0L88.51 0Q87.96 0.30 87.34 0.30L87.34 0.30L87.34 0.30Q86.73 0.30 86.32 0.07L86.32 0.07L86.32 0.07Q85.90-0.16 85.78-0.55L85.78-0.55L85.78-0.55Q85.54-0.18 85.03 0.06L85.03 0.06L85.03 0.06Q84.52 0.30 83.84 0.30L83.84 0.30L83.84 0.30Q83.16 0.30 82.60 0.12L82.60 0.12L82.60 0.12Q82.05-0.06 81.70-0.45ZM84.86-6.54L84.86-6.54L84.86-6.54Q84.69-6.27 84.54-5.81L84.54-5.81L84.54-5.81Q84.39-5.35 84.14-4.13L84.14-4.13L84.14-4.13Q83.89-2.91 83.89-2.04L83.89-2.04L83.89-2.04Q83.89-1.17 84.03-0.91L84.03-0.91L84.03-0.91Q84.16-0.66 84.40-0.66L84.40-0.66L84.40-0.66Q84.88-0.66 85.24-1.12L85.24-1.12L85.24-1.12Q85.59-1.57 85.72-2.38L85.72-2.38L86.52-6.78L86.52-6.78Q86.20-7.05 85.84-7.05L85.84-7.05L85.84-7.05Q85.47-7.05 85.25-6.93L85.25-6.93L85.25-6.93Q85.03-6.81 84.86-6.54ZM94.05-0.82L94.05-0.82L94.05-0.82Q93.58 0.30 92.10 0.30L92.10 0.30L92.10 0.30Q91.35 0.30 90.87-0.22L90.87-0.22L90.87-0.22Q90.48-0.66 90.48-1.16L90.48-1.16L90.48-1.16Q90.48-2.28 91.00-4.74L91.00-4.74L92.10-10.50L95.14-10.80L93.69-3.21L93.69-3.21Q93.43-2.10 93.43-1.71L93.43-1.71L93.43-1.71Q93.43-0.85 94.05-0.82ZM104.27-6.93L104.27-6.93L104.27-6.93Q104.49-7.38 104.49-7.80L104.49-7.80L104.49-7.80Q104.49-8.22 104.44-8.45L104.44-8.45L104.44-8.45Q104.40-8.69 104.30-8.87L104.30-8.87L104.30-8.87Q104.07-9.25 103.62-9.25L103.62-9.25L103.62-9.25Q103.06-9.25 102.61-8.85L102.61-8.85L102.61-8.85Q102.13-8.43 102.13-7.77L102.13-7.77L102.13-7.77Q102.13-7.35 102.43-7.03L102.43-7.03L102.43-7.03Q102.72-6.71 103.17-6.40L103.17-6.40L103.17-6.40Q103.62-6.10 104.13-5.80L104.13-5.80L104.13-5.80Q104.64-5.50 105.09-5.14L105.09-5.14L105.09-5.14Q106.13-4.32 106.13-3.21L106.13-3.21L106.13-3.21Q106.13-2.46 105.73-1.82L105.73-1.82L105.73-1.82Q105.33-1.19 104.67-0.72L104.67-0.72L104.67-0.72Q103.23 0.30 101.33 0.30L101.33 0.30L101.33 0.30Q99.78 0.30 98.98-0.20L98.98-0.20L98.98-0.20Q98.19-0.70 98.19-1.47L98.19-1.47L98.19-1.47Q98.19-2.83 99.25-3.18L99.25-3.18L99.25-3.18Q99.55-3.28 100.01-3.28L100.01-3.28L100.01-3.28Q100.47-3.28 100.99-3.09L100.99-3.09L100.99-3.09Q100.75-2.48 100.75-1.92L100.75-1.92L100.75-1.92Q100.75-0.72 101.61-0.72L101.61-0.72L101.61-0.72Q102.16-0.72 102.62-1.13L102.62-1.13L102.62-1.13Q103.08-1.53 103.08-1.99L103.08-1.99L103.08-1.99Q103.08-2.44 102.79-2.77L102.79-2.77L102.79-2.77Q102.49-3.10 102.06-3.37L102.06-3.37L102.06-3.37Q101.63-3.63 101.12-3.88L101.12-3.88L101.12-3.88Q100.62-4.14 100.19-4.50L100.19-4.50L100.19-4.50Q99.16-5.33 99.16-6.64L99.16-6.64L99.16-6.64Q99.16-7.50 99.58-8.17L99.58-8.17L99.58-8.17Q100.00-8.83 100.68-9.29L100.68-9.29L100.68-9.29Q102.03-10.20 103.69-10.20L103.69-10.20L103.69-10.20Q105.34-10.20 106.15-9.71L106.15-9.71L106.15-9.71Q106.95-9.21 106.95-8.37L106.95-8.37L106.95-8.37Q106.95-7.63 106.38-7.17L106.38-7.17L106.38-7.17Q105.88-6.78 105.28-6.78L105.28-6.78L105.28-6.78Q104.69-6.78 104.27-6.93ZM107.50-1.50L107.50-1.50L107.50-1.50Q107.50-1.91 107.71-2.92L107.71-2.92L108.51-6.97L107.62-6.97L107.68-7.42L107.68-7.42Q109.48-7.96 111.22-9.29L111.22-9.29L111.94-9.29L111.58-7.65L112.75-7.65L112.62-6.97L111.46-6.97L110.70-2.92L110.70-2.92Q110.50-1.99 110.50-1.68L110.50-1.68L110.50-1.68Q110.50-0.96 111.13-0.81L111.13-0.81L111.13-0.81Q110.98-0.30 110.44 0L110.44 0L110.44 0Q109.90 0.30 109.14 0.30L109.14 0.30L109.14 0.30Q108.37 0.30 107.94-0.18L107.94-0.18L107.94-0.18Q107.50-0.66 107.50-1.50ZM117.49-0.63L117.49-0.63L117.49-0.63Q116.77 0.30 114.99 0.30L114.99 0.30L114.99 0.30Q114.06 0.30 113.38-0.26L113.38-0.26L113.38-0.26Q112.71-0.82 112.71-1.64L112.71-1.64L112.71-1.64Q112.71-2.08 112.75-2.31L112.75-2.31L113.76-7.65L116.80-7.95L115.71-2.16L115.71-2.16Q115.65-1.83 115.65-1.64L115.65-1.64L115.65-1.64Q115.65-0.77 116.17-0.77L116.17-0.77L116.17-0.77Q116.76-0.77 117.18-1.56L117.18-1.56L117.18-1.56Q117.31-1.81 117.38-2.15L117.38-2.15L118.44-7.65L121.39-7.95L120.28-2.10L120.28-2.10Q120.24-1.88 120.24-1.64L120.24-1.64L120.24-1.64Q120.24-1.40 120.38-1.13L120.38-1.13L120.38-1.13Q120.51-0.87 120.94-0.81L120.94-0.81L120.94-0.81Q120.85-0.45 120.54-0.21L120.54-0.21L120.54-0.21Q119.88 0.30 119.17 0.30L119.17 0.30L119.17 0.30Q118.45 0.30 118.03 0.04L118.03 0.04L118.03 0.04Q117.61-0.21 117.49-0.63ZM126.87-7.95L126.87-7.95L126.87-7.95Q127.41-7.95 127.83-7.83L127.83-7.83L127.83-7.83Q127.84-7.89 127.88-8.05L127.88-8.05L127.95-8.52L127.95-8.52Q128.01-8.82 128.10-9.31L128.10-9.31L128.34-10.50L131.32-10.80L129.66-2.10L129.66-2.10Q129.65-2.01 129.65-1.86L129.65-1.86L129.65-1.62L129.65-1.62Q129.65-1.29 129.81-1.04L129.81-1.04L129.81-1.04Q129.97-0.79 130.25-0.79L130.25-0.79L130.25-0.79Q129.94-0.09 129.03 0.21L129.03 0.21L129.03 0.21Q128.72 0.30 128.27 0.30L128.27 0.30L128.27 0.30Q127.83 0.30 127.42 0.07L127.42 0.07L127.42 0.07Q127.02-0.16 126.90-0.55L126.90-0.55L126.90-0.55Q126.66-0.16 126.18 0.07L126.18 0.07L126.18 0.07Q125.70 0.30 125.00 0.30L125.00 0.30L125.00 0.30Q124.31 0.30 123.73 0.12L123.73 0.12L123.73 0.12Q123.15-0.06 122.79-0.45L122.79-0.45L122.79-0.45Q122.13-1.21 122.13-2.96L122.13-2.96L122.13-2.96Q122.13-5.21 123.45-6.57L123.45-6.57L123.45-6.57Q124.77-7.95 126.87-7.95ZM126.77-7.05L126.77-7.05L126.77-7.05Q126.21-7.05 125.91-6.45L125.91-6.45L125.91-6.45Q125.61-5.85 125.30-4.37L125.30-4.37L125.30-4.37Q125.00-2.88 125.00-1.54L125.00-1.54L125.00-1.54Q125.00-0.63 125.53-0.63L125.53-0.63L125.53-0.63Q126.02-0.63 126.35-1.11L126.35-1.11L126.35-1.11Q126.69-1.59 126.83-2.38L126.83-2.38L127.64-6.78L127.64-6.78Q127.32-7.05 126.77-7.05ZM136.29-1.69L136.29-1.69L136.29-1.69Q135.51-0.89 134.08-0.89L134.08-0.89L134.08-0.89Q132.30-0.89 131.92-2.19L131.92-2.19L131.92-2.19Q131.80-2.58 131.80-3.01L131.80-3.01L131.80-3.01Q131.80-3.45 131.89-3.90L131.89-3.90L132.60-7.65L135.64-7.95L134.82-3.58L134.82-3.58Q134.79-3.39 134.74-3.18L134.74-3.18L134.74-3.18Q134.70-2.97 134.70-2.75L134.70-2.75L134.70-2.75Q134.70-2.53 134.77-2.39L134.77-2.39L134.77-2.39Q134.85-2.25 134.95-2.16L134.95-2.16L134.95-2.16Q135.13-2.04 135.46-2.04L135.46-2.04L135.46-2.04Q135.78-2.04 136.06-2.43L136.06-2.43L136.06-2.43Q136.33-2.82 136.47-3.49L136.47-3.49L137.29-7.65L140.25-7.95L139.13-2.05L139.13-2.05Q138.57 0.82 137.43 1.96L137.43 1.96L137.43 1.96Q136.84 2.55 136.09 2.78L136.09 2.78L136.09 2.78Q135.33 3.01 134.35 3.01L134.35 3.01L134.35 3.01Q132.78 3.01 131.88 2.52L131.88 2.52L131.88 2.52Q130.98 2.02 130.98 1.20L130.98 1.20L130.98 1.20Q130.98 0.58 131.44 0.23L131.44 0.23L131.44 0.23Q131.91-0.12 132.63-0.12L132.63-0.12L132.63-0.12Q133.26-0.12 133.74 0.15L133.74 0.15L133.74 0.15Q134.02 0.32 134.16 0.53L134.16 0.53L134.16 0.53Q133.81 0.82 133.81 1.32L133.81 1.32L133.81 1.32Q133.81 1.98 134.41 1.98L134.41 1.98L134.41 1.98Q135.40 1.98 135.97-0.30L135.97-0.30L135.97-0.30Q136.14-0.97 136.29-1.69Z" fill="url(#editing-gradow-gradient)"></path></g></g><style>text {
  font-size: 64px;
  font-family: Arial Black;
  dominant-baseline: central;
  text-anchor: middle;
}</style></svg>