<svg width="365.9712646484375px" height="48.815234375px" xmlns="http://www.w3.org/2000/svg" viewBox="67.01436767578124 50.5923828125 365.9712646484375 48.815234375" style="background: rgba(0, 0, 0, 0);" preserveAspectRatio="xMidYMid"><defs><linearGradient id="editing-gradient-gradient" x1="0" x2="1" y1="0.5" y2="0.5" gradientUnits="objectBoundingBox"><stop offset="0" stop-color="#f0f"></stop><stop offset="1" stop-color="#0ff"></stop></linearGradient></defs><g><g transform="translate(123.67906737327576, 81.31999969482422)"><path d="M8.21 0.36L8.21 0.36L8.21 0.36Q5.90 0.36 5.69-2.92L5.69-2.92L2.59-2.92L2.59-2.92Q2.23-2.09 1.98-1.37L1.98-1.37L1.51 0L-1.01 0L4.66-11.88L8.53-11.88L9.29-3.13L9.29-3.13Q9.47-1.24 10.19-0.68L10.19-0.68L10.19-0.68Q9.67 0.36 8.21 0.36ZM4.14-6.52L3.15-4.23L5.63-4.23L5.42-8.86L5.42-9.34L4.14-6.52ZM10.69-1.06L10.69-1.06L10.69-1.06Q10.69-1.75 11.22-2.12L11.22-2.12L11.22-2.12Q11.75-2.50 12.51-2.50L12.51-2.50L12.51-2.50Q13.27-2.50 13.73-2.12L13.73-2.12L13.73-2.12Q14.18-1.75 14.18-1.06L14.18-1.06L14.18-1.06Q14.18-0.38 13.67-0.01L13.67-0.01L13.67-0.01Q13.16 0.36 12.40 0.36L12.40 0.36L12.40 0.36Q11.65 0.36 11.17-0.01L11.17-0.01L11.17-0.01Q10.69-0.38 10.69-1.06ZM19.53 0L15.70 0L17.75-10.94L17.95-11.88L21.80-11.88L19.53 0ZM26.84-1.06L26.84-1.06L26.84-1.06Q26.35 0.36 24.48 0.36L24.48 0.36L24.48 0.36Q23.09 0.36 22.14-1.30L22.14-1.30L22.14-1.30Q21.17-2.95 20.99-5.65L20.99-5.65L20.99-5.65Q22.97-9.27 24.34-10.76L24.34-10.76L24.34-10.76Q25.65-12.19 27.02-12.19L27.02-12.19L27.02-12.19Q27.76-12.19 28.29-11.79L28.29-11.79L28.29-11.79Q28.82-11.39 28.94-10.76L28.94-10.76L28.94-10.76Q28.33-10.51 28.04-10.31L28.04-10.31L28.04-10.31Q27.32-9.77 26.35-8.57L26.35-8.57L24.71-6.61L24.71-6.61Q24.32-6.14 24.16-5.92L24.16-5.92L24.16-5.92Q24.43-4.41 25.24-2.92L25.24-2.92L25.24-2.92Q26.01-1.49 26.84-1.06ZM33.52-8.77L33.52-8.77L33.52-8.77Q32.90-9.23 32.90-10.23L32.90-10.23L32.90-10.23Q32.90-11.23 33.56-11.75L33.56-11.75L33.56-11.75Q34.22-12.28 35.35-12.28L35.35-12.28L35.35-12.28Q36.07-12.28 37.78-12.02L37.78-12.02L39.01-11.84L39.01-11.84Q39.62-11.77 40.26-11.77L40.26-11.77L40.26-11.77Q40.90-11.77 41.33-12.04L41.33-12.04L41.33-12.04Q41.98-11.47 41.98-10.64L41.98-10.64L41.98-10.64Q41.98-9.81 41.24-9.22L41.24-9.22L41.24-9.22Q40.48-8.59 39.51-8.59L39.51-8.59L39.51-8.59Q39.04-8.59 38.29-8.71L38.29-8.71L38.29-8.71Q37.40-5.94 37.40-4.01L37.40-4.01L37.40-4.01Q37.40-2.09 38.38-1.08L38.38-1.08L38.38-1.08Q37.93-0.27 37.26 0.05L37.26 0.05L37.26 0.05Q36.59 0.36 35.60 0.36L35.60 0.36L35.60 0.36Q34.60 0.36 33.98-0.19L33.98-0.19L33.98-0.19Q33.35-0.74 33.35-1.87L33.35-1.87L33.35-1.87Q33.35-3.19 34.07-5.35L34.07-5.35L34.07-5.35Q34.79-7.49 35.87-9.13L35.87-9.13L35.87-9.13Q35.35-9.18 34.81-9.18L34.81-9.18L34.81-9.18Q33.70-9.18 33.52-8.77ZM49.09-2.77L49.09-2.77L49.09-2.77Q49.43-2.34 49.43-1.64L49.43-1.64L49.43-1.64Q49.43-0.67 48.71-0.15L48.71-0.15L48.71-0.15Q47.99 0.36 46.85 0.36L46.85 0.36L46.85 0.36Q46.21 0.36 45.22 0.22L45.22 0.22L45.22 0.22Q43.27-0.09 42.68-0.09L42.68-0.09L42.68-0.09Q42.08-0.09 41.85-0.06L41.85-0.06L41.85-0.06Q41.62-0.04 41.24 0L41.24 0L43.45-11.88L51.21-11.88L51.21-11.88Q51.21-10.78 50.68-10.21L50.68-10.21L50.68-10.21Q50.15-9.63 49.10-9.63L49.10-9.63L49.10-9.63Q48.06-9.63 47.00-10.12L47.00-10.12L46.44-6.97L49.64-6.97L49.64-6.97Q49.64-6.01 49.18-5.48L49.18-5.48L49.18-5.48Q48.71-4.95 47.93-4.95L47.93-4.95L47.93-4.95Q47.14-4.95 46.66-5.13L46.66-5.13L46.66-5.13Q46.17-5.31 46.12-5.36L46.12-5.36L45.47-1.96L45.47-1.96Q45.90-1.91 46.71-1.91L46.71-1.91L46.71-1.91Q48.10-1.91 49.09-2.77ZM60.48-3.73L60.48-3.73L60.48-3.73Q60.95-3.38 60.95-2.66L60.95-2.66L60.95-2.66Q60.95-1.93 60.63-1.41L60.63-1.41L60.63-1.41Q60.32-0.90 59.71-0.50L59.71-0.50L59.71-0.50Q58.39 0.34 56.10 0.34L56.10 0.34L56.10 0.34Q53.80 0.34 52.55-0.86L52.55-0.86L52.55-0.86Q51.30-2.05 51.30-4.18L51.30-4.18L51.30-4.18Q51.30-7.18 52.87-9.47L52.87-9.47L52.87-9.47Q54.05-11.16 56.18-11.88L56.18-11.88L56.18-11.88Q57.28-12.24 58.36-12.24L58.36-12.24L58.36-12.24Q59.44-12.24 60.10-12.10L60.10-12.10L60.10-12.10Q60.77-11.95 61.27-11.66L61.27-11.66L61.27-11.66Q62.37-11.03 62.37-10.03L62.37-10.03L62.37-10.03Q62.37-9.11 61.51-8.42L61.51-8.42L61.51-8.42Q60.71-7.81 60.07-7.81L60.07-7.81L60.07-7.81Q59.42-7.81 59.15-7.90L59.15-7.90L59.15-7.90Q59.22-8.55 59.22-8.97L59.22-8.97L59.22-8.97Q59.22-9.40 59.20-9.70L59.20-9.70L59.20-9.70Q59.18-10.01 59.09-10.30L59.09-10.30L59.09-10.30Q58.91-10.96 58.37-10.96L58.37-10.96L58.37-10.96Q57.82-10.96 57.27-10.45L57.27-10.45L57.27-10.45Q56.72-9.94 56.25-9.07L56.25-9.07L56.25-9.07Q55.19-7.11 55.19-4.79L55.19-4.79L55.19-4.79Q55.19-3.67 55.82-3.03L55.82-3.03L55.82-3.03Q56.45-2.39 57.80-2.39L57.80-2.39L57.80-2.39Q58.81-2.39 59.76-3.06L59.76-3.06L59.76-3.06Q60.17-3.35 60.48-3.73ZM69.16-1.35L69.16-1.35L69.16-1.35Q69.16-2.61 69.66-5.13L69.66-5.13L67.00-5.13L66.01 0L62.24 0L64.53-11.88L68.33-11.88L67.28-6.57L69.95-6.57L70.94-11.88L74.74-11.88L74.74-11.88Q74.48-10.55 74.16-9.05L74.16-9.05L73.55-6.12L73.55-6.12Q72.86-2.70 72.86-1.21L72.86-1.21L72.86-1.21Q72.86-0.59 73.06-0.25L73.06-0.25L73.06-0.25Q72.16 0.36 71.11 0.36L71.11 0.36L71.11 0.36Q70.06 0.36 69.61-0.14L69.61-0.14L69.61-0.14Q69.16-0.65 69.16-1.35ZM77.02 0L75.04 0L77.20-11.88L81.07-11.88L83.88-3.71L85.37-11.88L87.37-11.86L85.18 0L81.05 0L78.46-7.87L77.02 0ZM91.55 0L87.62 0L89.91-11.88L93.87-11.88L91.55 0ZM103.66-3.73L103.66-3.73L103.66-3.73Q104.13-3.38 104.13-2.66L104.13-2.66L104.13-2.66Q104.13-1.93 103.82-1.41L103.82-1.41L103.82-1.41Q103.50-0.90 102.89-0.50L102.89-0.50L102.89-0.50Q101.57 0.34 99.28 0.34L99.28 0.34L99.28 0.34Q96.98 0.34 95.73-0.86L95.73-0.86L95.73-0.86Q94.48-2.05 94.48-4.18L94.48-4.18L94.48-4.18Q94.48-7.18 96.05-9.47L96.05-9.47L96.05-9.47Q97.24-11.16 99.36-11.88L99.36-11.88L99.36-11.88Q100.46-12.24 101.54-12.24L101.54-12.24L101.54-12.24Q102.62-12.24 103.28-12.10L103.28-12.10L103.28-12.10Q103.95-11.95 104.45-11.66L104.45-11.66L104.45-11.66Q105.55-11.03 105.55-10.03L105.55-10.03L105.55-10.03Q105.55-9.11 104.69-8.42L104.69-8.42L104.69-8.42Q103.90-7.81 103.25-7.81L103.25-7.81L103.25-7.81Q102.60-7.81 102.33-7.90L102.33-7.90L102.33-7.90Q102.40-8.55 102.40-8.97L102.40-8.97L102.40-8.97Q102.40-9.40 102.38-9.70L102.38-9.70L102.38-9.70Q102.37-10.01 102.28-10.30L102.28-10.30L102.28-10.30Q102.10-10.96 101.55-10.96L101.55-10.96L101.55-10.96Q101.00-10.96 100.45-10.45L100.45-10.45L100.45-10.45Q99.90-9.94 99.43-9.07L99.43-9.07L99.43-9.07Q98.37-7.11 98.37-4.79L98.37-4.79L98.37-4.79Q98.37-3.67 99.00-3.03L99.00-3.03L99.00-3.03Q99.63-2.39 100.98-2.39L100.98-2.39L100.98-2.39Q101.99-2.39 102.94-3.06L102.94-3.06L102.94-3.06Q103.36-3.35 103.66-3.73ZM113.53 0.36L113.53 0.36L113.53 0.36Q111.22 0.36 111.01-2.92L111.01-2.92L107.91-2.92L107.91-2.92Q107.55-2.09 107.30-1.37L107.30-1.37L106.83 0L104.31 0L109.98-11.88L113.85-11.88L114.61-3.13L114.61-3.13Q114.79-1.24 115.51-0.68L115.51-0.68L115.51-0.68Q114.98 0.36 113.53 0.36ZM109.46-6.52L108.47-4.23L110.95-4.23L110.74-8.86L110.74-9.34L109.46-6.52ZM124.07-2.77L124.07-2.77L124.07-2.77Q124.42-2.34 124.42-1.50L124.42-1.50L124.42-1.50Q124.42-0.67 123.78-0.15L123.78-0.15L123.78-0.15Q123.14 0.36 122.02 0.36L122.02 0.36L122.02 0.36Q121.37 0.36 120.37 0.22L120.37 0.22L120.37 0.22Q118.39-0.09 117.82-0.09L117.82-0.09L117.82-0.09Q117.25-0.09 117.02-0.06L117.02-0.06L117.02-0.06Q116.78-0.04 116.41 0L116.41 0L118.58-11.88L122.53-11.88L120.73-1.98L120.73-1.98Q120.96-1.94 121.18-1.94L121.18-1.94L121.63-1.94L121.63-1.94Q123.14-1.94 124.07-2.77ZM136.35-8.32L136.35-8.32L136.35-8.32Q136.62-8.86 136.62-9.36L136.62-9.36L136.62-9.36Q136.62-9.86 136.57-10.14L136.57-10.14L136.57-10.14Q136.51-10.42 136.39-10.64L136.39-10.64L136.39-10.64Q136.12-11.11 135.58-11.11L135.58-11.11L135.58-11.11Q134.91-11.11 134.37-10.62L134.37-10.62L134.37-10.62Q133.79-10.12 133.79-9.32L133.79-9.32L133.79-9.32Q133.79-8.82 134.15-8.43L134.15-8.43L134.15-8.43Q134.50-8.05 135.04-7.69L135.04-7.69L135.04-7.69Q135.58-7.33 136.19-6.97L136.19-6.97L136.19-6.97Q136.80-6.61 137.34-6.17L137.34-6.17L137.34-6.17Q138.58-5.18 138.58-3.85L138.58-3.85L138.58-3.85Q138.58-2.95 138.11-2.19L138.11-2.19L138.11-2.19Q137.63-1.42 136.84-0.86L136.84-0.86L136.84-0.86Q135.11 0.36 132.82 0.36L132.82 0.36L132.82 0.36Q130.97 0.36 130.01-0.24L130.01-0.24L130.01-0.24Q129.06-0.85 129.06-1.76L129.06-1.76L129.06-1.76Q129.06-3.40 130.34-3.82L130.34-3.82L130.34-3.82Q130.70-3.94 131.25-3.94L131.25-3.94L131.25-3.94Q131.80-3.94 132.43-3.71L132.43-3.71L132.43-3.71Q132.14-2.97 132.14-2.30L132.14-2.30L132.14-2.30Q132.14-0.86 133.16-0.86L133.16-0.86L133.16-0.86Q133.83-0.86 134.38-1.35L134.38-1.35L134.38-1.35Q134.93-1.84 134.93-2.39L134.93-2.39L134.93-2.39Q134.93-2.93 134.58-3.33L134.58-3.33L134.58-3.33Q134.23-3.73 133.70-4.04L133.70-4.04L133.70-4.04Q133.18-4.36 132.58-4.66L132.58-4.66L132.58-4.66Q131.98-4.97 131.45-5.40L131.45-5.40L131.45-5.40Q130.23-6.39 130.23-7.97L130.23-7.97L130.23-7.97Q130.23-9.00 130.73-9.80L130.73-9.80L130.73-9.80Q131.24-10.60 132.05-11.14L132.05-11.14L132.05-11.14Q133.67-12.24 135.66-12.24L135.66-12.24L135.66-12.24Q137.65-12.24 138.61-11.65L138.61-11.65L138.61-11.65Q139.57-11.05 139.57-10.04L139.57-10.04L139.57-10.04Q139.57-9.16 138.89-8.60L138.89-8.60L138.89-8.60Q138.29-8.14 137.57-8.14L137.57-8.14L137.57-8.14Q136.85-8.14 136.35-8.32ZM141.39-8.77L141.39-8.77L141.39-8.77Q140.78-9.23 140.78-10.23L140.78-10.23L140.78-10.23Q140.78-11.23 141.44-11.75L141.44-11.75L141.44-11.75Q142.09-12.28 143.23-12.28L143.23-12.28L143.23-12.28Q143.95-12.28 145.66-12.02L145.66-12.02L146.88-11.84L146.88-11.84Q147.49-11.77 148.13-11.77L148.13-11.77L148.13-11.77Q148.77-11.77 149.20-12.04L149.20-12.04L149.20-12.04Q149.85-11.47 149.85-10.64L149.85-10.64L149.85-10.64Q149.85-9.81 149.11-9.22L149.11-9.22L149.11-9.22Q148.36-8.59 147.38-8.59L147.38-8.59L147.38-8.59Q146.92-8.59 146.16-8.71L146.16-8.71L146.16-8.71Q145.28-5.94 145.28-4.01L145.28-4.01L145.28-4.01Q145.28-2.09 146.25-1.08L146.25-1.08L146.25-1.08Q145.80-0.27 145.13 0.05L145.13 0.05L145.13 0.05Q144.47 0.36 143.47 0.36L143.47 0.36L143.47 0.36Q142.47 0.36 141.85-0.19L141.85-0.19L141.85-0.19Q141.23-0.74 141.23-1.87L141.23-1.87L141.23-1.87Q141.23-3.19 141.95-5.35L141.95-5.35L141.95-5.35Q142.67-7.49 143.75-9.13L143.75-9.13L143.75-9.13Q143.23-9.18 142.69-9.18L142.69-9.18L142.69-9.18Q141.57-9.18 141.39-8.77ZM149.62-2.66L149.62-2.66L149.62-2.66Q149.62-3.37 149.80-4.27L149.80-4.27L151.25-11.88L155.23-11.88L153.79-4.21L153.79-4.21Q153.63-3.37 153.63-2.75L153.63-2.75L153.63-2.75Q153.63-2.12 153.89-1.80L153.89-1.80L153.89-1.80Q154.15-1.48 154.64-1.48L154.64-1.48L154.64-1.48Q155.12-1.48 155.43-1.60L155.43-1.60L155.43-1.60Q155.74-1.73 155.99-2.03L155.99-2.03L155.99-2.03Q156.47-2.65 156.78-4.21L156.78-4.21L158.24-11.88L160.96-11.88L159.52-4.23L159.52-4.23Q159.01-1.67 157.63-0.65L157.63-0.65L157.63-0.65Q156.28 0.36 153.61 0.36L153.61 0.36L153.61 0.36Q151.61 0.36 150.55-0.50L150.55-0.50L150.55-0.50Q149.62-1.26 149.62-2.66ZM173.00-7.47L173.00-7.47L173.00-7.47Q173.00 0.20 164.68 0.20L164.68 0.20L164.68 0.20Q163.35 0.20 161.15-0.13L161.15-0.13L163.17-10.76L163.17-10.76Q163.31-11.48 163.40-11.90L163.40-11.90L163.40-11.90Q166.14-12.10 167.36-12.10L167.36-12.10L167.36-12.10Q168.57-12.10 169.69-11.84L169.69-11.84L169.69-11.84Q170.80-11.59 171.54-11.03L171.54-11.03L171.54-11.03Q173.00-9.94 173.00-7.47ZM169.29-8.14L169.29-8.14L169.29-8.14Q169.29-10.82 167.36-10.82L167.36-10.82L167.18-10.82L167.18-10.82Q167.09-10.82 167.00-10.80L167.00-10.80L165.15-1.13L165.15-1.13Q165.22-1.10 165.29-1.10L165.29-1.10L165.44-1.10L165.44-1.10Q166.10-1.10 166.80-1.51L166.80-1.51L166.80-1.51Q167.49-1.93 168.03-2.77L168.03-2.77L168.03-2.77Q169.29-4.73 169.29-8.14ZM175.12 0L176.17-5.29L176.17-5.29Q175.64-10.17 173.81-11.21L173.81-11.21L173.81-11.21Q174.19-11.68 174.80-11.94L174.80-11.94L174.80-11.94Q175.41-12.20 176.15-12.20L176.15-12.20L176.15-12.20Q176.89-12.20 177.44-11.94L177.44-11.94L177.44-11.94Q178.00-11.68 178.36-11.12L178.36-11.12L178.36-11.12Q179.05-10.06 179.05-7.52L179.05-7.52L179.05-6.23L179.05-6.23Q180.13-9.40 181.21-10.76L181.21-10.76L181.21-10.76Q182.30-12.17 183.67-12.17L183.67-12.17L183.67-12.17Q184.21-12.17 184.57-11.89L184.57-11.89L184.57-11.89Q184.93-11.61 185.11-11.20L185.11-11.20L185.11-11.20Q183.73-10.58 182.39-8.82L182.39-8.82L182.39-8.82Q181.06-7.06 180.20-4.59L180.20-4.59L179.14 0L175.12 0ZM197.24-3.73L197.24-3.73L197.24-3.73Q197.71-3.38 197.71-2.66L197.71-2.66L197.71-2.66Q197.71-1.93 197.40-1.41L197.40-1.41L197.40-1.41Q197.08-0.90 196.47-0.50L196.47-0.50L196.47-0.50Q195.16 0.34 192.86 0.34L192.86 0.34L192.86 0.34Q190.57 0.34 189.32-0.86L189.32-0.86L189.32-0.86Q188.06-2.05 188.06-4.18L188.06-4.18L188.06-4.18Q188.06-7.18 189.63-9.47L189.63-9.47L189.63-9.47Q190.82-11.16 192.94-11.88L192.94-11.88L192.94-11.88Q194.04-12.24 195.12-12.24L195.12-12.24L195.12-12.24Q196.20-12.24 196.87-12.10L196.87-12.10L196.87-12.10Q197.53-11.95 198.04-11.66L198.04-11.66L198.04-11.66Q199.13-11.03 199.13-10.03L199.13-10.03L199.13-10.03Q199.13-9.11 198.27-8.42L198.27-8.42L198.27-8.42Q197.48-7.81 196.83-7.81L196.83-7.81L196.83-7.81Q196.18-7.81 195.91-7.90L195.91-7.90L195.91-7.90Q195.98-8.55 195.98-8.97L195.98-8.97L195.98-8.97Q195.98-9.40 195.97-9.70L195.97-9.70L195.97-9.70Q195.95-10.01 195.86-10.30L195.86-10.30L195.86-10.30Q195.68-10.96 195.13-10.96L195.13-10.96L195.13-10.96Q194.58-10.96 194.03-10.45L194.03-10.45L194.03-10.45Q193.48-9.94 193.01-9.07L193.01-9.07L193.01-9.07Q191.95-7.11 191.95-4.79L191.95-4.79L191.95-4.79Q191.95-3.67 192.58-3.03L192.58-3.03L192.58-3.03Q193.21-2.39 194.56-2.39L194.56-2.39L194.56-2.39Q195.57-2.39 196.52-3.06L196.52-3.06L196.52-3.06Q196.94-3.35 197.24-3.73ZM206.89-2.77L206.89-2.77L206.89-2.77Q207.23-2.34 207.23-1.64L207.23-1.64L207.23-1.64Q207.23-0.67 206.51-0.15L206.51-0.15L206.51-0.15Q205.79 0.36 204.66 0.36L204.66 0.36L204.66 0.36Q204.01 0.36 203.02 0.22L203.02 0.22L203.02 0.22Q201.08-0.09 200.48-0.09L200.48-0.09L200.48-0.09Q199.89-0.09 199.66-0.06L199.66-0.06L199.66-0.06Q199.42-0.04 199.04 0L199.04 0L201.26-11.88L209.02-11.88L209.02-11.88Q209.02-10.78 208.49-10.21L208.49-10.21L208.49-10.21Q207.95-9.63 206.91-9.63L206.91-9.63L206.91-9.63Q205.87-9.63 204.80-10.12L204.80-10.12L204.25-6.97L207.45-6.97L207.45-6.97Q207.45-6.01 206.98-5.48L206.98-5.48L206.98-5.48Q206.51-4.95 205.73-4.95L205.73-4.95L205.73-4.95Q204.95-4.95 204.46-5.13L204.46-5.13L204.46-5.13Q203.98-5.31 203.92-5.36L203.92-5.36L203.27-1.96L203.27-1.96Q203.71-1.91 204.52-1.91L204.52-1.91L204.52-1.91Q205.90-1.91 206.89-2.77ZM210.74 0L208.76 0L210.92-11.88L214.79-11.88L217.60-3.71L219.10-11.88L221.09-11.86L218.90 0L214.78 0L212.18-7.87L210.74 0ZM222.98-8.77L222.98-8.77L222.98-8.77Q222.37-9.23 222.37-10.23L222.37-10.23L222.37-10.23Q222.37-11.23 223.03-11.75L223.03-11.75L223.03-11.75Q223.69-12.28 224.82-12.28L224.82-12.28L224.82-12.28Q225.54-12.28 227.25-12.02L227.25-12.02L228.47-11.84L228.47-11.84Q229.09-11.77 229.73-11.77L229.73-11.77L229.73-11.77Q230.36-11.77 230.80-12.04L230.80-12.04L230.80-12.04Q231.44-11.47 231.44-10.64L231.44-10.64L231.44-10.64Q231.44-9.81 230.71-9.22L230.71-9.22L230.71-9.22Q229.95-8.59 228.98-8.59L228.98-8.59L228.98-8.59Q228.51-8.59 227.75-8.71L227.75-8.71L227.75-8.71Q226.87-5.94 226.87-4.01L226.87-4.01L226.87-4.01Q226.87-2.09 227.84-1.08L227.84-1.08L227.84-1.08Q227.39-0.27 226.73 0.05L226.73 0.05L226.73 0.05Q226.06 0.36 225.06 0.36L225.06 0.36L225.06 0.36Q224.06 0.36 223.44-0.19L223.44-0.19L223.44-0.19Q222.82-0.74 222.82-1.87L222.82-1.87L222.82-1.87Q222.82-3.19 223.54-5.35L223.54-5.35L223.54-5.35Q224.26-7.49 225.34-9.13L225.34-9.13L225.34-9.13Q224.82-9.18 224.28-9.18L224.28-9.18L224.28-9.18Q223.16-9.18 222.98-8.77ZM238.55-2.77L238.55-2.77L238.55-2.77Q238.90-2.34 238.90-1.64L238.90-1.64L238.90-1.64Q238.90-0.67 238.18-0.15L238.18-0.15L238.18-0.15Q237.46 0.36 236.32 0.36L236.32 0.36L236.32 0.36Q235.67 0.36 234.68 0.22L234.68 0.22L234.68 0.22Q232.74-0.09 232.15-0.09L232.15-0.09L232.15-0.09Q231.55-0.09 231.32-0.06L231.32-0.06L231.32-0.06Q231.08-0.04 230.71 0L230.71 0L232.92-11.88L240.68-11.88L240.68-11.88Q240.68-10.78 240.15-10.21L240.15-10.21L240.15-10.21Q239.62-9.63 238.57-9.63L238.57-9.63L238.57-9.63Q237.53-9.63 236.47-10.12L236.47-10.12L235.91-6.97L239.11-6.97L239.11-6.97Q239.11-6.01 238.64-5.48L238.64-5.48L238.64-5.48Q238.18-4.95 237.39-4.95L237.39-4.95L237.39-4.95Q236.61-4.95 236.12-5.13L236.12-5.13L236.12-5.13Q235.64-5.31 235.58-5.36L235.58-5.36L234.94-1.96L234.94-1.96Q235.37-1.91 236.18-1.91L236.18-1.91L236.18-1.91Q237.56-1.91 238.55-2.77ZM244.24 0L240.39 0L242.59-11.83L242.59-11.83Q244.37-12.02 246.97-12.02L246.97-12.02L246.97-12.02Q249.57-12.02 250.78-11.27L250.78-11.27L250.78-11.27Q251.98-10.51 251.98-8.99L251.98-8.99L251.98-8.99Q251.98-7.47 251.20-6.52L251.20-6.52L251.20-6.52Q250.42-5.56 249.07-5.26L249.07-5.26L249.07-5.26Q249.37-3.76 250.07-2.56L250.07-2.56L250.07-2.56Q250.72-1.42 251.48-1.06L251.48-1.06L251.48-1.06Q251.21-0.31 250.66 0.03L250.66 0.03L250.66 0.03Q250.11 0.36 249.33 0.36L249.33 0.36L249.33 0.36Q248.54 0.36 247.93-0.10L247.93-0.10L247.93-0.10Q247.32-0.56 246.83-1.40L246.83-1.40L246.83-1.40Q245.81-3.24 245.70-6.14L245.70-6.14L245.83-6.14L245.83-6.14Q247.16-6.17 247.82-6.87L247.82-6.87L247.82-6.87Q248.49-7.56 248.49-9.02L248.49-9.02L248.49-9.02Q248.49-10.84 246.96-10.91L246.96-10.91L246.56-10.91L246.56-10.91Q246.40-10.91 246.31-10.89L246.31-10.89L244.24 0Z" fill="url(#editing-gradient-gradient)"></path></g></g><style>text {
  font-size: 64px;
  font-family: Arial Black;
  dominant-baseline: central;
  text-anchor: middle;
}</style></svg>